<svg xmlns="http://www.w3.org/2000/svg" viewBox="0 0 400 320" width="400" height="320" fill="none" role="img" aria-label="A camera and two photos on a string"><style>
  .spin{transform-box:view-box;animation:spin linear infinite}
  .steam{animation:steam 3.6s ease-in-out infinite}
  .bob{animation:bob 4s ease-in-out infinite}
  .flash{animation:flash 5s ease-out infinite}
  @keyframes spin{to{transform:rotate(360deg)}}
  @keyframes steam{0%{transform:translateY(6px);opacity:0}35%{opacity:1}100%{transform:translateY(-14px);opacity:0}}
  @keyframes bob{0%,100%{transform:translate(0,0) rotate(0)}50%{transform:translate(4px,-7px) rotate(-2deg)}}
  @keyframes flash{0%,84%{opacity:0}87%{opacity:1}100%{opacity:0}}
  @media (prefers-reduced-motion:reduce){.spin,.steam,.bob,.flash{animation:none}.steam,.flash{opacity:.8}}</style><path d="M132.6 35.4 C154.4 39.2, 219 57.8, 262.2 59.4 C305.5 60.9, 370.5 47.3, 392.1 44.6 M132.1 36.5 C153.9 40.4, 218.6 58.7, 261.8 59.9 C305.1 61.1, 370.1 46.4, 391.7 43.7" stroke="#1a1a1a" stroke-width="1.6" fill="none" stroke-linecap="round" stroke-linejoin="round"/><path d="M169 57.7 C184.1 56.1, 199.8 54.6, 247.7 50.9 M167.2 57.4 C197.5 55.8, 227.4 52.1, 247.1 51.7 M249.4 53.8 C248.3 76.6, 251.1 106.7, 253.7 148.4 M248.7 51.7 C250.6 84.8, 252.5 118.8, 254.1 151 M252.8 148.2 C222.2 152.7, 192.9 153.9, 174.3 157.2 M255.7 149.2 C230.3 153.1, 204.6 154.6, 175.2 155.3 M173.7 154.6 C172.4 131.8, 172.3 104.3, 166.7 56.4 M175.9 155.7 C174.4 136, 173.9 117.6, 169.1 58.7" stroke="#1a1a1a" stroke-width="2.4" fill="none" stroke-linecap="round" stroke-linejoin="round"/><path d="M175.9 63.1 C190.3 62.2, 203 61.8, 241.6 60 M175.7 64.5 C200.9 62.2, 226.3 60.3, 240.7 58.6 M241.5 60.3 C243.8 78.8, 243.4 95, 244.7 123.8 M241 58.9 C242.7 72.3, 242.7 86.9, 246.4 124.2 M246.7 124.1 C233.8 123.8, 219.8 126.5, 180.4 128.1 M246.5 124.1 C226.6 125.4, 208.1 126.4, 181.1 129.3 M181.1 129.3 C178.5 107.6, 176.7 85, 177 63.5 M181 128.8 C179.2 105.3, 176.8 82.3, 176.3 64.4" stroke="#1a1a1a" stroke-width="1.6" fill="none" stroke-linecap="round" stroke-linejoin="round"/><path d="M225.4 90.7 C226.5 90.9, 227.5 90.8, 230.5 91.3 M225.6 90.5 C226.8 90.7, 227.9 90.8, 230.8 91.2 M230.9 91.1 C230.9 93.1, 230.6 94.4, 231 96.8 M230.7 91.4 C230.8 92.7, 230.8 94.2, 230.8 96.6 M230.8 96.9 C229.7 96.9, 228.6 96.8, 225.4 97.5 M230.9 96.8 C229.5 96.8, 228 97.2, 225.6 97.4 M225.8 97.3 C225 98.7, 224.8 99.3, 223.8 101.9 M225.5 97.5 C225.1 99, 224.5 100.5, 223.8 101.9 M224 101.6 C224.4 102.7, 225.5 103.9, 226.7 106.2 M223.7 101.9 C224.9 103.3, 225.7 104.7, 226.9 106.1 M227.1 106.2 C226.1 106.8, 225.3 107.9, 223.2 110.1 M226.8 106.3 C225.5 107.5, 223.9 109.1, 223.2 110 M223.2 109.9 C221.8 109.2, 221.1 107.9, 218.9 107 M223.2 109.8 C221.9 109.1, 220.9 108.5, 219 106.7 M219 106.5 C217.7 107.1, 216.4 107.9, 214.6 108.7 M218.9 106.7 C217.4 107.3, 216.1 107.9, 214.5 108.7 M214.5 108.6 C214.1 110.4, 214.2 111.6, 213.7 114 M214.6 108.5 C214.4 110.2, 214 112.1, 213.8 113.9 M213.5 114 C212.1 113.6, 210 113.9, 208.3 113.8 M213.8 113.9 C211.8 113.7, 210 113.7, 208.4 113.9 M208.1 113.8 C208.3 112.2, 207.7 110.3, 207.3 108.5 M208.3 113.9 C208.1 111.8, 207.6 110.1, 207.4 108.7 M207.5 108.4 C205.7 107.8, 203.9 107.3, 203.4 107 M207.6 108.7 C206.2 108, 205 107.4, 203.1 106.9 M203.3 106.8 C201.9 107.6, 200.1 108.9, 198.7 109.7 M203.1 106.7 C202.3 107.3, 201.5 108.2, 198.9 110 M198.9 110 C197.8 109, 197.2 108.3, 194.9 106.3 M198.9 109.8 C197.8 108.8, 196.8 107.8, 195.1 106.2 M195.1 105.8 C196.3 104.5, 197.3 103.2, 198.1 101.9 M195.2 106.1 C196.3 104.4, 197.5 102.8, 198.1 101.9 M198.1 101.6 C197.8 100.5, 197 99.3, 196.4 97.7 M198.2 101.9 C197.8 100.9, 197.4 100, 196.4 97.4 M196.5 97.3 C194.8 97.1, 192.8 96.8, 191.3 96.5 M196.5 97.4 C194.8 97.4, 193.2 97, 191.2 96.7 M191.2 96.8 C191.1 94.6, 191.2 92.9, 191.3 91.3 M191.1 96.6 C191.2 94.7, 191.2 92.4, 191.3 91.4 M191.4 91.2 C192.9 90.8, 194.8 90.8, 196.5 90.8 M191.3 91.3 C192.8 91.1, 194.1 90.8, 196.5 90.5 M196.2 90.6 C197.2 89.3, 197.5 87.7, 198 86.4 M196.4 90.5 C197 88.6, 197.8 87.1, 198.1 86.2 M198.1 86.3 C197.7 85.3, 196.9 84.3, 195 81.9 M198.1 86.1 C197.7 85.4, 197 84.4, 195.2 82 M195.2 82.1 C196 80.7, 197.1 79.9, 199.1 78 M195 81.9 C196.7 80.4, 197.9 79.1, 198.8 78.2 M198.7 78.3 C200.1 78.6, 201 79.7, 202.9 81.2 M198.9 78 C200.4 79.2, 202 80.3, 203.1 81.1 M203 81.4 C204.1 80.7, 205.1 80.5, 207.5 79.6 M203.2 81.3 C204.9 80.4, 206.6 79.8, 207.5 79.5 M207.5 79.6 C207.9 77.3, 207.8 75.5, 208.3 74 M207.6 79.4 C207.9 77.3, 208.2 75.3, 208.4 74.2 M208.2 74 C210.4 73.9, 212.1 74.2, 213.6 74.4 M208.3 74.2 C210.3 74, 212.5 74.2, 213.8 74.1 M213.6 74 C213.7 75.4, 213.9 77, 214.8 79.5 M213.6 74.2 C214 75.9, 214.1 77.4, 214.4 79.4 M214.3 79.6 C216 80, 217.6 80.5, 219.1 81.3 M214.6 79.4 C215.6 79.9, 216.9 80.4, 218.8 81.2 M218.7 80.9 C220.2 80.6, 220.9 79.6, 223.1 78.2 M218.8 81.3 C220.4 80.1, 221.9 79, 223.1 78 M223.3 78.3 C224.7 79.4, 225.8 80.8, 227 81.7 M223.2 78.1 C224.3 79.2, 225.3 80.2, 227 81.7 M226.7 82.1 C226 83.4, 224.8 84.5, 224.1 86.3 M227 82 C226.1 82.9, 225.5 83.9, 223.9 86.3 M223.9 86.2 C224.2 87.5, 225 89.2, 225.4 90.3 M223.7 86.2 C224.3 87.6, 224.9 89, 225.5 90.6" stroke="#1a1a1a" stroke-width="2.4" fill="none" stroke-linecap="round" stroke-linejoin="round"/><path d="M211.4 88.3 C212.4 88.2, 213.9 88.5, 214.6 89.4 C215.4 90.3, 215.8 92.3, 216 93.7 C216.2 95, 216.7 96.5, 216 97.5 C215.3 98.5, 213.2 99.5, 212 99.8 C210.7 100, 209.5 99.6, 208.6 99.1 C207.7 98.6, 206.9 97.7, 206.6 96.7 C206.2 95.6, 206.1 93.9, 206.3 92.7 C206.6 91.4, 206.9 89.9, 207.8 89.1 C208.8 88.3, 211.1 88, 211.8 87.9 C212.5 87.8, 212.2 88.4, 212.1 88.6 M212.3 87.4 C213.4 87.5, 215 89.5, 215.6 90.5 C216.2 91.4, 215.9 92.1, 215.9 93.3 C215.8 94.6, 216 96.5, 215.2 97.7 C214.5 98.9, 212.8 100.1, 211.6 100.5 C210.4 100.8, 208.9 100.6, 207.8 99.8 C206.8 99, 205.8 97.1, 205.4 95.8 C205.1 94.5, 205.4 93, 205.7 92 C206 90.9, 206.3 90.2, 207.3 89.5 C208.2 88.8, 210.6 88.1, 211.5 87.8 C212.4 87.6, 212.6 87.8, 212.6 87.9" stroke="#1a1a1a" stroke-width="2.4" fill="none" stroke-linecap="round" stroke-linejoin="round"/><path d="M203.1 43.9 C204.5 44, 206.9 44, 212.1 44.1 M203.2 44.1 C205.2 43.9, 207.8 44, 212.2 44.2 M211.7 43.4 C211.5 49.8, 211.3 55.9, 212.2 61.6 M211.9 44.2 C212.3 47.8, 212.1 51.5, 212.4 62.1 M211.6 62.3 C209.4 62, 207.8 62.1, 202.7 61.9 M212.2 62.2 C210 62, 207.9 62.2, 203 61.9 M203 62.7 C203.4 57.7, 202.8 54.3, 203.5 44.8 M202.8 61.9 C202.6 57.8, 203 52.4, 203.3 44.3" stroke="#1a1a1a" stroke-width="1.6" fill="none" stroke-linecap="round" stroke-linejoin="round"/><path d="M283.2 58.4 C300.1 60.3, 314.1 62.9, 363.9 64.9 M282.9 59.8 C304.6 61.2, 326.8 62.6, 361.2 66.5 M360.8 64.8 C361 98.7, 354.8 134, 355.7 162.3 M361.1 66.8 C359.5 93.3, 358.4 121.5, 356.3 161.7 M357.4 161.2 C337 161.9, 316.3 160.6, 276.4 157.2 M357 161.5 C326.3 158.7, 295.5 156.7, 277.9 156.6 M279.4 155.2 C280.4 127.2, 283.1 102, 283.8 58.4 M279 155.7 C279.1 134.2, 281.8 113.1, 284.2 60.6" stroke="#1a1a1a" stroke-width="2.4" fill="none" stroke-linecap="round" stroke-linejoin="round"/><path d="M288.7 69 C304.5 68.1, 316.4 70.8, 354.3 74 M289.6 67.3 C309.7 69.3, 327.8 71.6, 354.8 73.2 M353.9 72.4 C354 95.9, 353.2 116.4, 350.4 132 M355.3 73.6 C353.1 93.6, 352.9 113.8, 350.8 130.3 M351.2 131.8 C333.1 129.1, 315.7 127.5, 284.9 125.1 M351.7 131.3 C326.8 129.8, 303.4 128.1, 285.9 125.7 M285 126.7 C287.3 103.9, 288.3 82.1, 288.9 67.5 M286.1 125.8 C286.9 103.6, 288.3 81.1, 289.7 68.4" stroke="#1a1a1a" stroke-width="1.6" fill="none" stroke-linecap="round" stroke-linejoin="round"/><path d="M296.6 114.3 C300.7 112.2, 306.6 109.3, 320.1 100.9 M295.8 114.2 C303.7 109.3, 311.4 105.5, 320.1 101 M321.2 100.6 C328.6 102.3, 338.2 102.7, 341.1 102.1 M319.9 100.5 C325.1 101.4, 329.3 102, 341.4 103.2 M341.8 102.6 C341.8 107.4, 341.2 110.9, 341.3 116.1 M341.6 102.7 C342.3 107.4, 342.1 111.8, 341.9 116.2 M341.9 115.2 C329.2 115.6, 318 116, 296.6 114.1 M341.6 115.8 C325.9 115.5, 310.1 114.5, 295.4 114.3" stroke="#1a1a1a" stroke-width="1.8" fill="none" stroke-linecap="round" stroke-linejoin="round"/><path d="M317.8 100.3 C323.1 99.6, 324.1 98, 337.5 88 M318.1 100.6 C323.6 98.3, 329.3 92.5, 336.6 89.7" stroke="#1a1a1a" stroke-width="2.2" fill="none" stroke-linecap="round" stroke-linejoin="round"/><path d="M303.9 114 C304.8 113.5, 305.3 112.7, 306.5 113 C307.6 113.4, 310.2 114.9, 310.9 115.8 C311.6 116.8, 310.7 118.1, 310.7 118.9 C310.6 119.7, 311.2 119.9, 310.7 120.7 C310.1 121.5, 308.6 123.3, 307.3 123.8 C306.1 124.2, 304.5 124.4, 303.4 123.5 C302.2 122.7, 300.9 119.8, 300.4 118.7 C299.9 117.6, 299.6 117.8, 300.3 116.8 C301.1 115.9, 304.2 113.6, 304.8 112.9 C305.4 112.1, 303.7 112.4, 303.7 112.6 M308.6 112 C309.6 112, 310.5 113.3, 311.1 114.5 C311.7 115.8, 312.9 118.1, 312.5 119.5 C312.1 120.9, 309.7 122.4, 308.6 122.8 C307.5 123.2, 306.7 121.9, 305.8 121.9 C304.9 121.9, 304.1 123.1, 303.1 122.8 C302.1 122.5, 300.3 121.2, 299.8 120.1 C299.4 119.1, 299.4 118, 300.2 116.6 C301.1 115.2, 303.9 112.1, 305 111.8 C306.2 111.4, 306.6 114.3, 307 114.5 C307.4 114.7, 307.1 113.1, 307.4 113" stroke="#1a1a1a" stroke-width="1.6" fill="none" stroke-linecap="round" stroke-linejoin="round"/><path d="M336.8 114.9 C337.7 115.2, 337.9 115, 338.4 115.8 C338.9 116.6, 340 118.3, 340 119.7 C340 121.1, 339.3 123.2, 338.3 124.1 C337.3 125, 335.3 125.2, 334.1 125 C332.9 124.7, 332.1 123.5, 331.2 122.5 C330.2 121.5, 328.7 120.3, 328.3 119.2 C327.9 118, 328.1 116.4, 328.7 115.6 C329.3 114.7, 330.5 114.2, 332 114 C333.4 113.9, 336.3 114.5, 337.4 114.7 C338.6 114.8, 338.8 114.8, 338.8 115 M334.7 113.4 C335.4 113.7, 336.7 114, 337.5 115.1 C338.2 116.1, 339.3 118.7, 339.3 119.8 C339.4 120.9, 338.6 120.7, 337.6 121.6 C336.7 122.5, 334.6 124.9, 333.7 125.1 C332.7 125.4, 333 123.8, 332.1 123.2 C331.1 122.5, 328.5 122.2, 328 121.3 C327.6 120.3, 328.9 118.9, 329.3 117.6 C329.7 116.3, 329.4 113.8, 330.4 113.4 C331.4 112.9, 334.3 115.1, 335.2 115 C336.1 115, 336.1 113.6, 335.9 113.3" stroke="#1a1a1a" stroke-width="1.6" fill="none" stroke-linecap="round" stroke-linejoin="round"/><path d="M288.2 124.2 C299.6 123.9, 312.7 124.7, 350.6 128.8 M287.5 123.6 C300.5 124.9, 313.4 126, 349.9 127.4" stroke="#1a1a1a" stroke-width="1.2" fill="none" stroke-linecap="round" stroke-linejoin="round"/><path d="M317.8 51.8 C319.8 52.3, 321.8 51.6, 326.6 51.9 M317.9 52.1 C319.9 52, 321.9 52, 327 52.2 M326.9 52.3 C326.8 57.6, 327.3 61.2, 326.8 70.1 M327.1 52.1 C327.3 58.9, 327.2 64.9, 327 69.6 M326.7 70 C323.3 69.6, 320.2 69.7, 318.3 70.1 M326.9 69.9 C324.8 70, 322.8 70.1, 317.9 70 M317.2 69.7 C317.6 63.9, 317.9 59.5, 318.9 52 M317.7 69.9 C318.4 63.3, 317.8 56.8, 318.1 52.2" stroke="#1a1a1a" stroke-width="1.6" fill="none" stroke-linecap="round" stroke-linejoin="round"/><path d="M37.9 174 C81.7 177.1, 117.5 175.1, 235.3 173.9 M39.8 175.9 C88.9 177.3, 136.9 176.5, 236.7 176.6 M235.1 177 C233.8 209.1, 235.8 239.6, 234.7 287.4 M235.5 176.4 C235.6 202.8, 236.4 228.2, 235.5 286.6 M237.9 287.8 C161.4 285, 83 285, 41.4 288.1 M235.3 286.4 C196.8 286.6, 156.2 286.7, 39.4 287 M39.4 287.1 C38.8 242.6, 42.2 200.4, 40.6 176.9 M40.7 285.7 C38.8 249.9, 40.2 213.6, 39.7 176.5" stroke="#1a1a1a" stroke-width="2.4" fill="none" stroke-linecap="round" stroke-linejoin="round"/><path d="M71 159.3 C79.9 157.2, 90.6 156.4, 122.6 158.6 M70.2 157.1 C84.1 157.5, 97.5 158.2, 120.9 158.3 M120.6 159.3 C123.9 163.9, 122.2 169.3, 120.1 176.3 M122.9 158.6 C120.8 163, 122.8 169.6, 123 177.8 M122.8 177.3 C112.1 179.9, 100.8 179.2, 71.2 177.4 M121.4 177.2 C101.5 178.6, 81.7 178.5, 69.3 177.9 M70.8 176.6 C71.4 171.8, 68.5 168, 69.1 159.8 M69.8 177.7 C69.3 172.6, 69.1 166.4, 69 158.5" stroke="#1a1a1a" stroke-width="2.4" fill="none" stroke-linecap="round" stroke-linejoin="round"/><path d="M191.8 164.2 C198 162.7, 202.8 163.1, 218 162.8 M192.6 164.5 C198.5 163.5, 206.8 163.7, 215.4 164 M214.9 164.9 C216.6 167.2, 216 171.4, 217.1 175.7 M216.1 164.5 C216.2 167.9, 215.5 173.3, 216.2 175.5 M215.8 177.3 C210.4 175.6, 206 174.3, 193 177.2 M215.5 176.1 C207.6 176.1, 200 175.7, 191.2 177.1 M190.7 176.3 C192.4 171.5, 192.1 166.7, 193.1 163 M191.4 175.8 C191.8 173.4, 192 170, 192.4 164.3" stroke="#1a1a1a" stroke-width="1.8" fill="none" stroke-linecap="round" stroke-linejoin="round"/><path d="M139.4 188.9 C145.9 186.4, 155.2 188.2, 162.1 190.9 C169.1 193.5, 176.7 198.5, 181.2 204.8 C185.6 211, 188.4 220.8, 189 228.4 C189.7 236.1, 188.4 244, 185.2 250.9 C181.9 257.8, 175.5 265.8, 169.5 270 C163.6 274.2, 156.6 276.2, 149.5 276 C142.4 275.8, 132.8 273.3, 126.9 268.7 C121.1 264.1, 116.8 255.6, 114.2 248.2 C111.7 240.9, 110.8 232.8, 111.9 224.9 C113 217, 115.9 206.8, 121 200.7 C126 194.7, 138.2 190.3, 142.3 188.4 C146.3 186.5, 145.2 188.8, 145.2 189.5 M156.2 187.4 C163 187.7, 170.7 193.1, 176 198.9 C181.3 204.7, 186.3 214.3, 188.1 221.9 C189.8 229.5, 189.1 237.3, 186.7 244.6 C184.4 251.8, 179.4 260.3, 173.9 265.4 C168.3 270.4, 160.2 273.8, 153.5 274.9 C146.8 276.1, 139.9 275.5, 133.6 272.3 C127.3 269, 119.8 262.1, 115.8 255.3 C111.7 248.4, 108.9 239.1, 109.2 231 C109.4 223, 113.2 213.4, 117.3 207 C121.4 200.7, 127.1 196.1, 134 192.8 C140.8 189.5, 154.6 187.6, 158.6 187.1 C162.6 186.7, 158.5 189.3, 157.9 190.2" stroke="#1a1a1a" stroke-width="2.4" fill="none" stroke-linecap="round" stroke-linejoin="round"/><path d="M136.5 208.9 C140.9 205.7, 148.8 204.8, 154.5 205.6 C160.2 206.4, 166.7 209.5, 170.5 213.7 C174.4 218, 177.4 225, 177.6 231 C177.7 237, 175.4 245.2, 171.5 249.5 C167.6 253.9, 159.7 256.1, 154 257.1 C148.2 258.1, 142 258, 137.1 255.5 C132.3 253, 126.7 247.3, 124.6 242 C122.5 236.8, 121 229.8, 124.5 223.9 C127.9 218.1, 140.6 209.9, 145.2 207 C149.9 204.2, 152.4 206.5, 152.3 206.8 M151.4 206.7 C156.7 206.8, 166 208.4, 170.4 212.2 C174.8 216, 177.7 223.3, 177.7 229.4 C177.8 235.6, 174.6 244.1, 170.8 248.8 C166.9 253.6, 160.3 256.4, 154.8 257.7 C149.2 259, 142.4 258.9, 137.4 256.6 C132.3 254.4, 126.5 249.3, 124.5 244.2 C122.5 239.1, 123.5 231.5, 125.2 226 C126.9 220.4, 130.1 214.1, 134.9 210.8 C139.7 207.4, 150.9 206.8, 154 206 C157 205.3, 153.2 206, 153.2 206.2" stroke="#1a1a1a" stroke-width="1.8" fill="none" stroke-linecap="round" stroke-linejoin="round"/><path d="M140.9 228.5 C140.9 228.5, 140.9 228.5, 140.9 228.5 M140.9 228.5 C140.9 228.5, 140.9 228.5, 140.9 228.5 M140.8 235.8 C144.8 232.5, 147.1 228.8, 150.3 222 M141.4 234.7 C142.4 232.4, 145.3 229.2, 150.5 223.9 M141 237.1 C145.8 236.5, 151.1 231.5, 155.8 221.8 M142.8 239.7 C147.2 232.5, 152.2 226.9, 155.9 223.1 M144.9 242.5 C152.2 237.9, 156 233, 160.6 224.2 M146.5 241 C149.6 237.6, 152.3 233.4, 159.6 226.2 M150.2 242.7 C151.9 238.7, 156.7 237, 158.5 232.2 M150.6 241.6 C153 237.7, 155.9 234.4, 160.1 230" stroke="#1a1a1a" stroke-width="1" fill="none" stroke-linecap="round" stroke-linejoin="round"/><path d="M153.4 222.8 C155.5 223, 157.5 223.9, 158.6 225.6 C159.8 227.3, 160.3 230.8, 160 232.9 C159.7 235, 158.5 237.1, 157 238.5 C155.5 240, 153.2 241.3, 150.9 241.5 C148.6 241.8, 145.1 240.9, 143.4 239.9 C141.6 238.8, 140.6 236.9, 140.2 235.1 C139.8 233.2, 139.7 230.6, 140.7 228.7 C141.7 226.7, 143.9 224.3, 146.2 223.2 C148.5 222.2, 153.3 222.1, 154.6 222.4 C156 222.6, 154.6 224.3, 154.4 224.7 M150 221 C152.1 220.4, 154.2 221.8, 155.7 223.2 C157.3 224.6, 158.8 227, 159.3 229.1 C159.7 231.2, 159.1 234, 158.3 235.7 C157.6 237.5, 156.5 238.8, 154.6 239.6 C152.7 240.5, 149 241, 146.7 240.8 C144.4 240.5, 142.1 239.6, 140.9 238 C139.7 236.5, 138.8 233.5, 139.4 231.6 C140 229.6, 143.1 227.7, 144.5 226.2 C146 224.8, 147.1 223.4, 148.2 222.8 C149.3 222.1, 150.9 222.1, 151 222.3" stroke="#1a1a1a" stroke-width="1.6" fill="none" stroke-linecap="round" stroke-linejoin="round"/><path d="M49.9 186.9 C60.5 186.5, 66 188.6, 85.8 186.8 M52.3 188.9 C66.4 189, 79.2 188.2, 85.5 188.9 M86 186.7 C86.2 191, 84.8 196.9, 84.6 207.2 M86.6 187.7 C86.7 193.5, 86.6 199, 85.4 206 M85 203.9 C74.6 206.7, 63.6 206.8, 52.1 207.2 M85.8 206.4 C78.8 206.4, 70 206.7, 53.1 206.2 M52.4 207.1 C53.1 197, 52 193.7, 50.7 186.4 M51.2 205.7 C52.7 201.5, 51.6 196.8, 51.8 188.4" stroke="#1a1a1a" stroke-width="1.8" fill="none" stroke-linecap="round" stroke-linejoin="round"/><path d="M40.5 205 C52.6 205.1, 66.8 204.6, 104.5 204.6 M40.3 204 C54 204.1, 67.3 203.4, 104 204.3" stroke="#1a1a1a" stroke-width="1.4" fill="none" stroke-linecap="round" stroke-linejoin="round"/><path d="M195.9 204.4 C204.5 204.4, 211.8 204.5, 235.1 203.8 M195.5 203.7 C205.4 204.1, 215.2 204.2, 236.2 204.1" stroke="#1a1a1a" stroke-width="1.4" fill="none" stroke-linecap="round" stroke-linejoin="round"/><g class="flash"><path d="M49.4 183.9 C46.9 181.2, 45.3 178.9, 37.7 169.1 M49.7 184.3 C46.5 180.4, 43.6 176.6, 38.4 170" stroke="#1a1a1a" stroke-width="2" fill="none" stroke-linecap="round" stroke-linejoin="round"/><path d="M60.7 180.5 C59.2 177, 59.2 174.4, 56.3 163.2 M59.9 180.9 C59.1 175.9, 58 171.4, 55.6 162.9" stroke="#1a1a1a" stroke-width="2" fill="none" stroke-linecap="round" stroke-linejoin="round"/><path d="M42.2 194.8 C39.4 192.3, 34.8 192.8, 25.8 188.5 M42 193.6 C36.9 192.4, 31.6 191.1, 24.8 188.8" stroke="#1a1a1a" stroke-width="2" fill="none" stroke-linecap="round" stroke-linejoin="round"/></g></svg>
